<?xml version="1.0" encoding="UTF-8"?>
<!DOCTYPE svg PUBLIC "-//W3C//DTD SVG 1.1//EN" "http://www.w3.org/Graphics/SVG/1.1/DTD/svg11.dtd">
<!-- Creator: CorelDRAW X6 -->
<svg xmlns="http://www.w3.org/2000/svg" xml:space="preserve" width="210mm" height="297mm" version="1.1" style="shape-rendering:geometricPrecision; text-rendering:geometricPrecision; image-rendering:optimizeQuality; fill-rule:evenodd; clip-rule:evenodd"
viewBox="0 0 21000 29700"
 xmlns:xlink="http://www.w3.org/1999/xlink">
 <defs>
  <style type="text/css">
   <![CDATA[
    .str0 {stroke:#606062;stroke-width:7.62}
    .str1 {stroke:#373435;stroke-width:20}
    .str2 {stroke:#ED3237;stroke-width:20}
    .fil0 {fill:none;fill-rule:nonzero}
    .fil1 {fill:#373435}
    .fil2 {fill:#ED3237}
   ]]>
  </style>
 </defs>
 <g id="Capa_x0020_1">
  <metadata id="CorelCorpID_0Corel-Layer"/>
  <g id="_863479848">
   <g>
    <polygon class="fil0 str0" points="6220,23527 713,17886 713,10023 6220,4325 14216,4325 19722,10023 19722,17886 14216,23527 "/>
    <path class="fil0 str0" d="M14216 23656l-7996 0c-106,0 -110,-10 -162,83l-5680 -5543c-52,-104 18,-235 18,-311l0 -7863c0,-269 -70,-198 -18,-213l5680 -5650c52,-138 56,-143 162,-143l7996 0c80,0 110,5 156,143l5506 5650c52,15 115,-56 115,213l0 7863c0,76 -63,207 -115,311l-5506 5543c-46,-93 -76,-83 -156,-83zm-7770 -452l0 0 7538 0 5462 -5516 0 -7661 -5462 -5293 -7538 0 -5462 5293 0 7661 5462 5516z"/>
   </g>
   <path class="fil1 str1" d="M4035 13792c445,9 737,1 737,1 40,0 -17,138 23,138 2627,21 4703,74 5781,43 74,-2 2,-99 67,-101 385,-11 631,-20 727,-21 703,-1399 304,-3361 -221,-3398 -224,-1116 -369,-1880 -436,-2289 -117,-340 -567,-558 -1349,-654 -1489,-225 -2810,-171 -3966,164 -266,64 -439,259 -518,586 -184,1148 -348,1852 -491,2112 -618,339 -830,2027 -357,3421zm3864 -3471c-125,0 -188,0 -188,0 -60,863 -91,1295 -91,1295 -94,370 -292,591 -592,665 -655,52 -998,82 -1030,91 -13,81 -16,124 -9,131 2367,14 3551,21 3551,21 -3,-74 -5,-118 -7,-131 -549,-60 -918,-119 -1105,-176 -243,-84 -400,-291 -472,-620 -38,-851 -57,-1276 -57,-1276zm-2217 3423c-41,-133 -36,-190 -36,-190 -832,-2 -1283,0 -1283,0 -468,-42 -508,-456 97,-454 788,0 1187,-1 1187,-1 0,-247 60,-396 386,-393 29,-96 129,-89 165,-2 2036,5 2960,1 3121,1 11,-62 110,-77 143,0 406,31 414,162 395,396 847,-1 1158,1 1289,0 589,107 436,420 -54,457 -808,-5 -1231,0 -1231,0 0,168 2,181 0,236 -98,137 -211,137 -260,0 -5,-452 4,-689 4,-689 -15,-94 -79,-131 -143,-125 -48,64 -117,63 -144,0 -2044,-5 -3119,-1 -3121,-1 -42,69 -116,71 -167,0 -149,-13 -108,540 -106,768 -69,143 -183,146 -245,-1zm4204 -2545c276,0 500,224 500,500 0,276 -224,500 -500,500 -276,0 -500,-224 -500,-500 0,-276 224,-500 500,-500zm-4232 -24c276,0 500,224 500,500 0,276 -224,500 -500,500 -276,0 -500,-224 -500,-500 0,-276 224,-500 500,-500zm-591 -2520c-143,469 -233,894 -272,1274 26,178 155,248 387,210 1963,-270 3705,-257 5228,39 266,73 397,-11 394,-250 -131,-732 -224,-1148 -278,-1248 -104,-518 -4895,-747 -5459,-26z"/>
   <circle class="fil1 str1" cx="13875" cy="17993" r="1679"/>
   <path class="fil1 str1" d="M15018 16000c741,489 1119,1135 1134,1937 960,57 1562,-42 1805,-296 376,-313 494,-833 354,-1560 -571,-3367 -865,-5213 -881,-5539 -257,-909 -867,-1475 -1836,-1452 -3,-645 9,-1121 -150,-1379 -462,-697 -1479,-743 -1899,-7 -117,188 -175,441 -173,758 1,425 0,633 3,628 -331,3 -492,4 -492,4 -231,45 -333,164 -305,356 -9,3433 -14,5149 -14,5149 -137,465 -387,705 -749,721 -6151,6 -9157,9 -9018,9 -198,44 -304,144 -319,300 6,1420 9,2097 9,2029 28,178 125,267 291,268 1467,-3 2200,-5 2200,-5 43,884 484,1451 1322,1701 550,103 1049,-27 1498,-388 357,-333 552,-766 582,-1299 2160,-3 3240,-5 3240,-5 36,-958 514,-1648 1433,-2071 624,-253 1279,-207 1964,139zm-1325 -7832c-6,612 -8,923 -8,923 376,0 544,0 562,0l0 -337c69,40 149,62 234,62 88,0 170,-24 240,-66 -1,232 1,341 1,341 376,1 548,0 548,0 9,-581 13,-862 13,-862 -169,-969 -1410,-923 -1590,-61zm2424 3015c74,-406 417,-624 1028,-653 382,2327 573,3491 573,3491 -645,44 -1064,-159 -1256,-609 -230,-1486 -345,-2229 -345,-2229zm-2269 472l1207 0c206,0 374,168 374,374l0 1269c0,206 -168,374 -374,374l-1207 0c-206,0 -374,-168 -374,-374l0 -1269c0,-206 168,-374 374,-374z"/>
   <rect class="fil1 str1" x="3970" y="14160" width="1477" height="1001" rx="166" ry="166"/>
   <rect class="fil1 str1" x="10032" y="14199" width="1477" height="1001" rx="166" ry="166"/>
   <path class="fil1 str1" d="M19975 9853l-25 8189 -5570 5689 -8322 8 -5680 -5543 -3 -8360 5754 -5807 8152 -7 5695 5829c11,11 15,-3 1,2zm-530 175c-14,5 11,11 0,0l-5462 -5293 -7525 0 -5461 5299 7 7676 5441 5495 7538 0 5462 -5516 0 -7661z"/>
   <circle class="fil2 str2" cx="14480" cy="8343" r="472"/>
  </g>
 </g>
</svg>
